<?xml version="1.0" encoding="UTF-8"?>
<!DOCTYPE svg PUBLIC "-//W3C//DTD SVG 1.1//EN" "http://www.w3.org/Graphics/SVG/1.1/DTD/svg11.dtd">
<!-- Creator: CorelDRAW X6 -->
<svg xmlns="http://www.w3.org/2000/svg" xml:space="preserve" width="1.54166in" height="1.70833in" version="1.1" style="shape-rendering:geometricPrecision; text-rendering:geometricPrecision; image-rendering:optimizeQuality; fill-rule:evenodd; clip-rule:evenodd"
viewBox="0 0 1542 1708"
 xmlns:xlink="http://www.w3.org/1999/xlink">
 <defs>
  <style type="text/css">
   <![CDATA[
    .str1 {stroke:#373435;stroke-width:97.2205}
    .str0 {stroke:#373435;stroke-width:111.11}
    .str2 {stroke:#FEFEFE;stroke-width:111.11}
    .fil0 {fill:none;fill-rule:nonzero}
    .fil1 {fill:#373435;fill-rule:nonzero}
   ]]>
  </style>
 </defs>
 <g id="Layer_x0020_1">
  <metadata id="CorelCorpID_0Corel-Layer"/>
  <line class="fil0 str0" x1="56" y1="638" x2="56" y2= "936" />
  <path class="fil0 str1" d="M1502 1458c0,112 -90,202 -202,202 -112,0 -202,-91 -202,-202 0,-112 90,-202 202,-202 112,0 202,90 202,202z"/>
  <path class="fil1" d="M635 1328c-126,0 -215,-25 -265,-74 -50,-49 -76,-136 -76,-260l0 -412c0,-124 25,-211 75,-261 50,-49 138,-74 264,-74l59 0c120,0 206,23 259,69 53,46 80,121 82,226l-129 1c-3,-69 -18,-116 -47,-142 -28,-26 -83,-39 -165,-39l-59 0c-86,0 -143,14 -169,43 -27,29 -40,97 -40,204l0 356c0,108 13,176 40,205 27,29 83,43 169,43l59 0c83,0 138,-14 168,-42 29,-28 44,-79 44,-154l0 -14 129 0 0 16c0,110 -26,189 -78,237 -52,47 -139,71 -261,71l-59 0z"/>
  <line class="fil0 str2" x1="1302" y1="534" x2="1302" y2= "857" />
  <polygon class="fil1" points="1514,751 1299,1044 1299,751 "/>
  <polygon class="fil1" points="1090,751 1305,1044 1305,751 "/>
  <path class="fil0 str0" d="M681 47c-608,0 -625,0 -625,744"/>
  <path class="fil0 str0" d="M677 47c608,0 625,0 625,744"/>
  <path class="fil0 str0" d="M664 1538c-608,0 -608,-7 -608,-751"/>
  <path class="fil0 str0" d="M657 1538c159,0 201,-7 438,-45"/>
 </g>
</svg>
